<svg width="20" height="13" viewBox="0 0 20 13" fill="none" xmlns="http://www.w3.org/2000/svg">
<path fill-rule="evenodd" clip-rule="evenodd" d="M19.2 1.68205C19.2 1.04901 18.7224 0.535828 18.1333 0.535828H17.0667C16.4776 0.535828 16 1.04901 16 1.68205V11.616C16 12.2491 16.4776 12.7622 17.0667 12.7622H18.1333C18.7224 12.7622 19.2 12.2491 19.2 11.616V1.68205ZM11.7659 2.98111H12.8326C13.4217 2.98111 13.8992 3.50661 13.8992 4.15485V11.5885C13.8992 12.2367 13.4217 12.7622 12.8326 12.7622H11.7659C11.1768 12.7622 10.6992 12.2367 10.6992 11.5885V4.15485C10.6992 3.50661 11.1768 2.98111 11.7659 2.98111ZM7.43411 5.63016H6.36745C5.77834 5.63016 5.30078 6.16235 5.30078 6.81884V11.5736C5.30078 12.23 5.77834 12.7622 6.36745 12.7622H7.43411C8.02322 12.7622 8.50078 12.23 8.50078 11.5736V6.81884C8.50078 6.16235 8.02322 5.63016 7.43411 5.63016ZM2.13333 8.07545H1.06667C0.477563 8.07545 0 8.60004 0 9.24715V11.5905C0 12.2377 0.477563 12.7622 1.06667 12.7622H2.13333C2.72244 12.7622 3.2 12.2377 3.2 11.5905V9.24715C3.2 8.60004 2.72244 8.07545 2.13333 8.07545Z" fill="black"/>
</svg>
