<svg width="33" height="14" viewBox="0 0 33 14" fill="none" xmlns="http://www.w3.org/2000/svg">
<path d="M4.75182 0.806959C5.34344 0.810984 5.91896 0.915624 6.47838 1.12088C7.04183 1.32211 7.54893 1.65213 7.99969 2.11094C8.45045 2.56572 8.80864 3.17545 9.07426 3.94013C9.33989 4.70481 9.4727 5.65059 9.4727 6.77749C9.47673 7.83999 9.36404 8.7898 9.13463 9.62692C8.90925 10.46 8.58527 11.1643 8.16269 11.7398C7.7401 12.3154 7.23099 12.754 6.63534 13.0559C6.0397 13.3577 5.3696 13.5087 4.62504 13.5087C3.84427 13.5087 3.15203 13.3557 2.54834 13.0499C1.94867 12.744 1.4637 12.3254 1.09344 11.7942C0.723174 11.2629 0.495783 10.6552 0.411266 9.97102H2.61475C2.72744 10.462 2.95684 10.8524 3.30296 11.1422C3.6531 11.4279 4.09379 11.5708 4.62504 11.5708C5.48229 11.5708 6.14233 11.1985 6.60516 10.454C7.06799 9.70942 7.29941 8.67509 7.29941 7.35099H7.21489C7.01768 7.70516 6.76212 8.01103 6.4482 8.26861C6.13428 8.52216 5.7781 8.71735 5.37966 8.85419C4.98525 8.99103 4.56669 9.05945 4.12398 9.05945C3.39955 9.05945 2.74756 8.88639 2.16801 8.54027C1.59249 8.19415 1.1357 7.71925 0.79763 7.11555C0.463586 6.51186 0.294552 5.82164 0.290527 5.04489C0.290527 4.23996 0.47566 3.51754 0.845925 2.87763C1.22021 2.23369 1.7414 1.72659 2.40949 1.35632C3.07758 0.98203 3.85835 0.79891 4.75182 0.806959ZM4.75786 2.61804C4.3232 2.61804 3.9308 2.72469 3.58066 2.938C3.23454 3.14728 2.96086 3.43302 2.75963 3.79524C2.56243 4.15343 2.46382 4.55388 2.46382 4.99659C2.46785 5.43527 2.56645 5.83371 2.75963 6.1919C2.95684 6.55009 3.22448 6.83383 3.56254 7.04311C3.90464 7.25239 4.29503 7.35703 4.73371 7.35703C5.0597 7.35703 5.36356 7.29465 5.64529 7.16989C5.92701 7.04512 6.17251 6.87206 6.38179 6.65071C6.5951 6.42533 6.76011 6.16977 6.87682 5.88402C6.99756 5.59827 7.05592 5.29642 7.05189 4.97848C7.05189 4.55589 6.95128 4.16551 6.75004 3.80731C6.55284 3.44912 6.28118 3.16136 5.93506 2.94403C5.59297 2.7267 5.20057 2.61804 4.75786 2.61804ZM12.8534 11.8545C12.4871 11.8545 12.1732 11.7258 11.9116 11.4682C11.65 11.2066 11.5212 10.8927 11.5253 10.5264C11.5212 10.1642 11.65 9.85431 11.9116 9.59673C12.1732 9.33916 12.4871 9.21037 12.8534 9.21037C13.2075 9.21037 13.5154 9.33916 13.777 9.59673C14.0427 9.85431 14.1775 10.1642 14.1815 10.5264C14.1775 10.7719 14.1131 10.9953 13.9883 11.1965C13.8676 11.3978 13.7066 11.5587 13.5054 11.6795C13.3082 11.7962 13.0908 11.8545 12.8534 11.8545ZM12.8534 5.72706C12.4871 5.72706 12.1732 5.59827 11.9116 5.3407C11.65 5.07909 11.5212 4.76517 11.5253 4.39893C11.5212 4.03672 11.65 3.72682 11.9116 3.46925C12.1732 3.20765 12.4871 3.07685 12.8534 3.07685C13.2075 3.07685 13.5154 3.20765 13.777 3.46925C14.0427 3.72682 14.1775 4.03672 14.1815 4.39893C14.1775 4.64041 14.1131 4.86177 13.9883 5.063C13.8676 5.26423 13.7066 5.42521 13.5054 5.54595C13.3082 5.66669 13.0908 5.72706 12.8534 5.72706ZM16.1903 11.0456V9.2647L21.4364 0.975993H22.9215V3.51151H22.0159L18.4843 9.10774V9.20433H25.8071V11.0456H16.1903ZM22.0884 13.3396V10.5023L22.1125 9.7054V0.975993H24.2255V13.3396H22.0884ZM32.5987 0.975993V13.3396H30.359V3.15533H30.2865L27.3948 5.00263V2.95007L30.4676 0.975993H32.5987Z" fill="black"/>
</svg>
